<svg xmlns="http://www.w3.org/2000/svg" viewBox="0 0 284 86.4"><defs><style type="text/css">.cls-1{fill:#c31230;}.cls-2{fill:#e5b649;}.cls-3{fill:#e9a93f;}.cls-4{fill:#fff;}</style></defs><title>fjordline_logo</title><g id="Layer_2" data-name="Layer 2"><rect class="cls-1" width="284" height="86.4"/></g><g id="Layer_1" data-name="Layer 1"><path class="cls-2" d="M43.6,26.7h0l.3.3c8-6.2,28.1-17,50.4,8.1a17.2,17.2,0,0,1,7.8-1.3C78.2,4.1,52.6,19.5,43.6,26.7Z"/><path class="cls-3" d="M43.9,26.9Z"/><path class="cls-2" d="M184.3,56.2h0c-9.3,8.2-36.6,27.4-64.2.7h-9.4c30.5,35.3,64.1,9,74.1-.4h0A2.19,2.19,0,0,1,184.3,56.2Z"/><path class="cls-2" d="M188.1,50.1a3.46,3.46,0,0,0-3.4,2.8,2.44,2.44,0,0,0,2.6,2.7,3.57,3.57,0,0,0,3.5-2.8A2.57,2.57,0,0,0,188.1,50.1Z"/><path class="cls-2" d="M40.9,27.4a3.47,3.47,0,0,0-3.5,2.8,2.26,2.26,0,0,0,2.5,2.5,3.47,3.47,0,0,0,3.5-2.8A2.36,2.36,0,0,0,40.9,27.4Z"/><path class="cls-4" d="M29.5,56.7c-1.2,3.7-3.3,8.3-5.9,8.3v.1c5.8,0,8.7-2.8,10.3-7.8L41,35.7H36.5Z"/><path class="cls-4" d="M14.7,39l1.1-3.3h4.1l.4-1.4c1.7-5.3,5.1-8,10.9-8a13.93,13.93,0,0,1,3.5.4L33.3,30a14.52,14.52,0,0,0-2.8-.4c-2.8,0-4.5,1.3-5.6,4.7l-.4,1.3H30L28.8,39H23.4l-6,18.4c-1.7,5-4.6,7.8-10.3,7.8v-.1c2.7,0,4.7-4.7,5.9-8.3L18.8,39Z"/><path class="cls-4" d="M58.1,35.3A14.64,14.64,0,0,0,43.8,48.6c-.5,4.4,1.7,7,7.4,7A14.85,14.85,0,0,0,65.6,42.4C66,38.3,64,35.3,58.1,35.3Zm2.6,7.6C60.1,48,56.3,52,52.2,52c-2.9,0-3.9-1.5-3.6-4.1.5-4.5,3.9-9.1,8.3-9.1C59.9,38.9,61,40.3,60.7,42.9Z"/><path class="cls-4" d="M76.4,42.4h0a54.29,54.29,0,0,0,2.7-6.7H74.7c-.9,2.9-2.1,6.6-3,9.3L68.3,55.2h4.6l1.4-4.3c2-6,6.8-12.5,10.3-11.6L86,35.2C82.1,34.7,79.3,37.9,76.4,42.4Z"/><path class="cls-4" d="M106.7,26.5l-2.9,9a26.45,26.45,0,0,0-2.7-.2c-9.5,0-14.5,7-15.4,14.2-.5,4.2,1,6.1,4.2,6.1,4.9,0,8.6-4.7,10.6-7.6h.1a47.71,47.71,0,0,0-3.1,7.2H102c.7-2.3,1.5-4.9,2.3-7l7.1-21.7Zm-4.5,13.9C100.7,44.8,95.8,52,92.1,52c-1.2,0-1.9-.9-1.6-3.2.5-4.5,3.6-10.2,9.4-10.2a9.63,9.63,0,0,1,2.7.4Z"/><polygon class="cls-4" points="119.7 26.5 110.3 55.3 114.9 55.3 124.3 26.5 119.7 26.5"/><polygon class="cls-4" points="123.3 55.3 127.9 55.3 134.3 35.7 129.7 35.7 123.3 55.3"/><path class="cls-4" d="M134.3,27.5a3.47,3.47,0,0,0-3.5,2.8,2.26,2.26,0,0,0,2.5,2.5,3.63,3.63,0,0,0,3.5-2.8A2.26,2.26,0,0,0,134.3,27.5Z"/><path class="cls-4" d="M154.7,35.3c-4.4,0-8,3.6-10.5,7.4h-.1a52.53,52.53,0,0,0,3-7h-4.5c-.8,2.6-1.9,6.1-3,9.3l-3.4,10.2h4.6l1.5-4.6c1.5-4.7,6.6-11.7,10.1-11.7,1.7,0,2.1,1.2,1.2,4l-4.1,12.4h4.6l4.4-13.4C159.8,37.9,158.8,35.3,154.7,35.3Z"/><path class="cls-4" d="M177.1,35.3c-7,0-12.7,6-13.6,13.9-.5,4.4,1.5,6.5,6.7,6.5a28.42,28.42,0,0,0,7.9-1.2l.4-3.3a19.9,19.9,0,0,1-6.3,1.1c-3.3,0-4.3-.7-4-3.4.1-.6.3-1.5.4-2,9-.3,14.2-2.6,14.7-7C183.5,37.6,182,35.3,177.1,35.3Zm1.4,5.2c-.3,2.2-3.2,3.3-9.1,3.5,1.2-3,3.6-5.5,6.7-5.5C177.8,38.5,178.7,39.2,178.5,40.5Z"/><path class="cls-4" d="M230.8,35.3a14.13,14.13,0,0,0-8.4,2.8,15.06,15.06,0,0,0-5.9,10.5c-.5,4.4,1.7,7,7.4,7a14.85,14.85,0,0,0,14.4-13.2C238.8,38.3,236.8,35.3,230.8,35.3Zm2.6,7.6c-.6,5.1-4.3,9.1-8.4,9.1-2.9,0-3.9-1.5-3.6-4.1.5-4.5,3.9-9.1,8.3-9.1C232.6,38.9,233.7,40.3,233.4,42.9Z"/><path class="cls-4" d="M272.5,35.4c-4.6,0-8.4,3.6-11,7.5h-.1a10.94,10.94,0,0,0,1.3-3.7c.3-2.5-1.3-3.9-4.2-3.9-4.6,0-8.4,3.6-11,7.4h-.1a52.26,52.26,0,0,0,3.1-7h-4.8c-.4,1.3-2.6,8-3,9.4l-3.4,10.2h4.9l1.5-4.6C247.6,45,252.9,39,256.2,39c1.7,0,2.2,1.2,1.2,4l-4.2,12.4H258l1.5-4.6c1.9-5.7,7.2-11.7,10.5-11.7,1.7,0,2.1,1.2,1.2,4L267,55.5h4.9l4.5-13.4C277.9,38,276.7,35.4,272.5,35.4Z"/><path class="cls-4" d="M196.5,48.8c-.4,3.9,1.5,6.6,7.6,6.6a22.38,22.38,0,0,0,6.1-.9l.5-3.4a14.49,14.49,0,0,1-4.7.8h0a4.49,4.49,0,0,1-3.5-1.2,3.73,3.73,0,0,1-.7-2.9c.5-4.5,3.8-9.3,9-9.3h0a12.27,12.27,0,0,1,3.9.7l1.5-3.5a17.27,17.27,0,0,0-4.7-.6A15,15,0,0,0,196.5,48.8Z"/></g></svg>